<svg width="60" height="60" viewBox="0 0 60 60" xmlns="http://www.w3.org/2000/svg">
  <g fill="none" fill-rule="evenodd">
    <g fill="#F9A8D4" fill-opacity="0.15">
      <path d="M13 13c3.5 0 6-2.5 6-6s-2.5-6-6-6-6 2.5-6 6 2.5 6 6 6zm0 40c3.5 0 6-2.5 6-6s-2.5-6-6-6-6 2.5-6 6 2.5 6 6 6zm40 0c3.5 0 6-2.5 6-6s-2.5-6-6-6-6 2.5-6 6 2.5 6 6 6z"/>
      <path d="M53 19c2.76 0 5-2.24 5-5s-2.24-5-5-5-5 2.24-5 5 2.24 5 5 5zm0 32c2.76 0 5-2.24 5-5s-2.24-5-5-5-5 2.24-5 5 2.24 5 5 5z" fill-opacity="0.3"/>
      <circle cx="33" cy="33" r="4" fill-opacity="0.4"/>
      <path d="M20 50c2.21 0 4-1.79 4-4s-1.79-4-4-4-4 1.79-4 4 1.79 4 4 4z" fill-opacity="0.2"/>
      <path d="M40 30c1.66 0 3-1.34 3-3s-1.34-3-3-3-3 1.34-3 3 1.34 3 3 3z" fill-opacity="0.3"/>
      <path d="M15 30c1.66 0 3-1.34 3-3s-1.34-3-3-3-3 1.34-3 3 1.34 3 3 3z" fill-opacity="0.2"/>
      <path d="M30 15c1.66 0 3-1.34 3-3s-1.34-3-3-3-3 1.34-3 3 1.34 3 3 3z" fill-opacity="0.3"/>
    </g>
  </g>
</svg> 